<svg xmlns="http://www.w3.org/2000/svg" xmlns:xlink="http://www.w3.org/1999/xlink" width="1366" zoomAndPan="magnify" viewBox="0 0 1024.5 576" height="768" preserveAspectRatio="xMidYMid meet" version="1.0"><defs><g/><clipPath id="45ef6faa70"><path d="M 0 0.140625 L 1024 0.140625 L 1024 575.859375 L 0 575.859375 Z M 0 0.140625 " clip-rule="nonzero"/></clipPath><clipPath id="330efbf936"><path d="M 0.0195312 299.65625 L 1024 299.65625 L 1024 575.859375 L 0.0195312 575.859375 Z M 0.0195312 299.65625 " clip-rule="nonzero"/></clipPath><clipPath id="bcb349c70c"><path d="M 0.0195312 299.65625 L 1024 299.65625 L 1024 363 L 0.0195312 363 Z M 0.0195312 299.65625 " clip-rule="nonzero"/></clipPath><clipPath id="b63d536e58"><path d="M 0.0195312 334 L 1024 334 L 1024 450 L 0.0195312 450 Z M 0.0195312 334 " clip-rule="nonzero"/></clipPath><clipPath id="93e1bb2dab"><path d="M 113 365 L 1024 365 L 1024 461 L 113 461 Z M 113 365 " clip-rule="nonzero"/></clipPath><clipPath id="1a4f808b85"><path d="M 0.0195312 306 L 850 306 L 850 356 L 0.0195312 356 Z M 0.0195312 306 " clip-rule="nonzero"/></clipPath><clipPath id="411aa9c1d1"><path d="M 0.0195312 388 L 1024 388 L 1024 575.859375 L 0.0195312 575.859375 Z M 0.0195312 388 " clip-rule="nonzero"/></clipPath><clipPath id="801852da03"><path d="M 0.0195312 388 L 1024 388 L 1024 490 L 0.0195312 490 Z M 0.0195312 388 " clip-rule="nonzero"/></clipPath><clipPath id="5bbbe7ef43"><path d="M 0.0195312 542 L 1024 542 L 1024 575.859375 L 0.0195312 575.859375 Z M 0.0195312 542 " clip-rule="nonzero"/></clipPath><clipPath id="6015f25069"><path d="M 176 404 L 1024 404 L 1024 481 L 176 481 Z M 176 404 " clip-rule="nonzero"/></clipPath><clipPath id="95360e48ff"><path d="M 0.0195312 440 L 1024 440 L 1024 553 L 0.0195312 553 Z M 0.0195312 440 " clip-rule="nonzero"/></clipPath><clipPath id="5cd241a570"><path d="M 0.0195312 494 L 1024 494 L 1024 575.859375 L 0.0195312 575.859375 Z M 0.0195312 494 " clip-rule="nonzero"/></clipPath><clipPath id="891c196740"><rect x="0" width="189" y="0" height="323"/></clipPath><clipPath id="efbb1c57f9"><rect x="0" width="196" y="0" height="324"/></clipPath><clipPath id="8c986fcac9"><path d="M 0 402.78125 L 1024 402.78125 L 1024 563.953125 L 0 563.953125 Z M 0 402.78125 " clip-rule="nonzero"/></clipPath><clipPath id="78121de3e8"><path d="M 0 402.78125 L 1024 402.78125 L 1024 451 L 0 451 Z M 0 402.78125 " clip-rule="nonzero"/></clipPath><clipPath id="d921bcd4cf"><path d="M 109 402.78125 L 1024 402.78125 L 1024 463 L 109 463 Z M 109 402.78125 " clip-rule="nonzero"/></clipPath><clipPath id="ca60bac741"><path d="M 149 402.78125 L 548 402.78125 L 548 463 L 149 463 Z M 149 402.78125 " clip-rule="nonzero"/></clipPath><clipPath id="f76c1324be"><path d="M 0 402.78125 L 1024 402.78125 L 1024 563.953125 L 0 563.953125 Z M 0 402.78125 " clip-rule="nonzero"/></clipPath><clipPath id="6ff70c1399"><path d="M 0 402.78125 L 1024 402.78125 L 1024 491 L 0 491 Z M 0 402.78125 " clip-rule="nonzero"/></clipPath><clipPath id="217eab01a6"><path d="M 0 544 L 1024 544 L 1024 563.953125 L 0 563.953125 Z M 0 544 " clip-rule="nonzero"/></clipPath><clipPath id="c5b62b31db"><path d="M 172 406 L 1024 406 L 1024 482 L 172 482 Z M 172 406 " clip-rule="nonzero"/></clipPath><clipPath id="ec1a5ad58a"><path d="M 0 441 L 1024 441 L 1024 555 L 0 555 Z M 0 441 " clip-rule="nonzero"/></clipPath><clipPath id="6dc62f1730"><path d="M 0 496 L 1024 496 L 1024 563.953125 L 0 563.953125 Z M 0 496 " clip-rule="nonzero"/></clipPath><clipPath id="61f801dac3"><path d="M 564.21875 0.140625 L 1024 0.140625 L 1024 575.859375 L 564.21875 575.859375 Z M 564.21875 0.140625 " clip-rule="nonzero"/></clipPath><clipPath id="6a5a404e1a"><path d="M 0.21875 0.140625 L 460 0.140625 L 460 575.859375 L 0.21875 575.859375 Z M 0.21875 0.140625 " clip-rule="nonzero"/></clipPath><clipPath id="8bcd466c29"><rect x="0" width="460" y="0" height="576"/></clipPath><clipPath id="d81fe2d569"><rect x="0" width="150" y="0" height="315"/></clipPath><clipPath id="1dd004a43d"><rect x="0" width="175" y="0" height="324"/></clipPath></defs><g clip-path="url(#45ef6faa70)"><path fill="#ffffff" d="M 0 0.140625 L 1024 0.140625 L 1024 575.859375 L 0 575.859375 Z M 0 0.140625 " fill-opacity="1" fill-rule="nonzero"/><path fill="#f4f6fc" d="M 0 0.140625 L 1024 0.140625 L 1024 575.859375 L 0 575.859375 Z M 0 0.140625 " fill-opacity="1" fill-rule="nonzero"/></g><g clip-path="url(#330efbf936)"><path fill="#b8e2f7" d="M 1025.554688 306.984375 L 1025.554688 615.183594 L 0.0195312 615.183594 L 0.0195312 299.703125 C 0.0195312 299.703125 37.894531 300.703125 55.210938 312.355469 C 72.527344 324.011719 101.050781 310.535156 137.496094 312.355469 C 173.941406 314.179688 196.234375 331.742188 228.835938 326.796875 C 261.4375 321.855469 310.808594 312.148438 351.398438 314.277344 C 396.300781 316.632812 447.085938 304.839844 495.703125 306.722656 C 546.652344 308.699219 588.464844 333.804688 652.054688 321.070312 C 696.582031 312.15625 799.585938 344.835938 846.3125 334.863281 C 893.039062 324.890625 901.261719 313.828125 954.289062 315.261719 C 1007.320312 316.695312 1025.554688 306.984375 1025.554688 306.984375 Z M 1025.554688 306.984375 " fill-opacity="1" fill-rule="evenodd"/></g><g clip-path="url(#bcb349c70c)"><path fill="#e4f7fe" d="M 1025.554688 306.984375 L 1025.554688 313.378906 C 981.78125 320.832031 936.546875 336.691406 875.261719 336.707031 C 809.988281 370.230469 747.40625 368.71875 696.949219 344.34375 C 652.136719 322.699219 604.207031 344.242188 528.976562 328.183594 C 490.734375 320.019531 451.105469 329.464844 408.078125 344.34375 C 366.964844 358.5625 333.039062 343.890625 263.859375 350.183594 C 215.773438 354.554688 179.917969 357.980469 145.058594 354.394531 C 64.980469 346.15625 26.667969 328.117188 0.0195312 328.183594 L 0.0195312 299.703125 C 0.0195312 299.703125 37.894531 300.703125 55.210938 312.355469 C 72.527344 324.011719 101.050781 310.535156 137.496094 312.355469 C 173.941406 314.179688 196.234375 331.742188 228.835938 326.796875 C 261.4375 321.855469 310.808594 312.148438 351.398438 314.277344 C 396.300781 316.632812 447.085938 304.839844 495.703125 306.722656 C 546.652344 308.699219 588.464844 333.804688 652.054688 321.070312 C 696.582031 312.15625 799.585938 344.835938 846.3125 334.863281 C 893.039062 324.890625 901.261719 313.828125 954.289062 315.261719 C 1007.320312 316.695312 1025.554688 306.984375 1025.554688 306.984375 Z M 1025.554688 306.984375 " fill-opacity="1" fill-rule="evenodd"/></g><g clip-path="url(#b63d536e58)"><path fill="#8acff8" d="M 0.0195312 362.296875 C 0.0195312 362.296875 11.3125 359.25 23.601562 358.921875 C 46.894531 358.292969 207.859375 377.09375 213.960938 380.132812 C 230.277344 388.269531 277.597656 385.207031 302.753906 380.132812 C 327.910156 375.058594 533.804688 340.683594 549.414062 343.8125 C 565.027344 346.945312 663.824219 375.449219 714.828125 377.644531 C 780.425781 380.464844 839.085938 359.527344 895.875 355.546875 C 937.699219 352.617188 993.972656 368.585938 1025.554688 355.546875 L 1025.554688 449.042969 L 0.0195312 442.035156 Z M 35.371094 355.546875 C 85.792969 345.894531 133.6875 352.691406 180.179688 371.628906 C 132.355469 363.753906 84.136719 358.101562 35.371094 355.546875 Z M 558.648438 339.792969 C 634.863281 339.054688 676.945312 355.152344 720.4375 371.628906 C 652.027344 373.054688 597.464844 343.972656 558.648438 339.792969 Z M 1025.554688 339.769531 L 1025.554688 349.398438 C 974.375 363.335938 936.304688 340.203125 887.976562 351.183594 C 943.097656 324.359375 992.015625 338.722656 1025.554688 339.769531 Z M 1025.554688 339.769531 " fill-opacity="1" fill-rule="evenodd"/></g><g clip-path="url(#93e1bb2dab)"><path fill="#5cbbf1" d="M 121.519531 409.988281 C 187.660156 416.640625 315.488281 387.355469 358.65625 384.316406 C 418.316406 380.117188 473.535156 389.1875 518.769531 374.699219 C 586.207031 353.101562 661.878906 398.511719 720.59375 397.964844 C 779.3125 397.421875 847.542969 373.085938 879.460938 370.3125 C 913.273438 367.375 968.363281 386.613281 992.097656 382.996094 C 1016.117188 379.332031 1025.554688 373.824219 1025.554688 373.824219 L 1025.554688 460.84375 L 113.070312 460.84375 Z M 398.386719 376.351562 C 441.492188 370.398438 485.597656 366.136719 531.898438 365.585938 C 514.941406 367.03125 498.96875 375.441406 474.550781 377.027344 C 452.015625 378.488281 423.910156 374.566406 398.386719 376.351562 Z M 398.386719 376.351562 " fill-opacity="1" fill-rule="evenodd"/></g><g clip-path="url(#1a4f808b85)"><path fill="#8acff8" d="M 657.71875 331 C 729.371094 316.695312 765.5625 355.558594 849.585938 340.484375 C 818.636719 348.214844 800.761719 357.570312 762.3125 355.164062 C 739.882812 353.757812 692.625 328.441406 657.71875 331 Z M 0.0195312 306.183594 C 19.671875 307.257812 28.574219 316.269531 58.371094 329.257812 C 97.492188 346.308594 185.777344 348.539062 221.289062 337.601562 C 271.089844 322.269531 427.292969 315.996094 427.292969 315.996094 C 427.292969 315.996094 306.417969 341.722656 254.09375 346.757812 C 121.988281 359.46875 57.324219 333.222656 35.183594 326.246094 C 17.746094 320.75 0.0195312 320.894531 0.0195312 320.894531 Z M 330.164062 341.003906 C 378.230469 335.230469 423.925781 313.535156 485.992188 320.261719 C 425.183594 322.195312 400.742188 354.652344 330.164062 341.003906 Z M 330.164062 341.003906 " fill-opacity="1" fill-rule="evenodd"/></g><path fill="#0294ea" d="M 153.382812 422.339844 L 231.898438 460.84375 L 549.414062 420.183594 C 408.0625 368.847656 281.203125 422.589844 153.382812 422.339844 Z M 153.382812 422.339844 " fill-opacity="1" fill-rule="evenodd"/><g clip-path="url(#411aa9c1d1)"><path fill="#b7e3f9" d="M 1025.554688 413.101562 L 1025.554688 615.183594 L 0.0195312 615.183594 L 0.0195312 398.644531 C 0.0195312 398.644531 37.382812 405.453125 77.0625 400.914062 C 142.003906 393.480469 165.816406 433.398438 212.453125 437.375 C 284.410156 443.515625 329.59375 405.960938 422.890625 419.519531 C 501.234375 430.898438 553.804688 393.453125 625.289062 388.898438 C 718.613281 382.957031 766.488281 409.109375 838.324219 399.917969 C 904.210938 391.488281 929.796875 425.664062 965.8125 426.167969 C 994.878906 426.578125 1001.25 415.574219 1025.554688 413.101562 Z M 1025.554688 413.101562 " fill-opacity="1" fill-rule="evenodd"/></g><g clip-path="url(#801852da03)"><path fill="#e4f7fe" d="M 1025.554688 413.101562 L 1025.554688 459.527344 C 929.535156 526.980469 721.566406 459.640625 690.847656 448.226562 C 660.953125 437.121094 628.757812 441.332031 602.351562 440.867188 C 574.199219 440.371094 552.496094 435.511719 542.765625 433.171875 C 542.765625 433.171875 487.84375 443.714844 438.210938 430.277344 C 381.757812 437.472656 353.828125 470.421875 320.03125 473.675781 C 285.726562 476.980469 263.863281 470.214844 231.898438 460.84375 C 206.167969 461.359375 178.878906 451.710938 151.949219 441.398438 C 81.453125 438.210938 35.460938 409.527344 0.0195312 406.714844 L 0.0195312 398.644531 C 0.0195312 398.644531 37.382812 405.453125 77.0625 400.914062 C 142.003906 393.480469 165.816406 433.398438 212.453125 437.375 C 284.410156 443.515625 329.59375 405.960938 422.890625 419.519531 C 501.234375 430.898438 553.804688 393.453125 625.289062 388.898438 C 718.613281 382.957031 766.488281 409.109375 838.324219 399.917969 C 904.210938 391.488281 929.796875 425.664062 965.8125 426.167969 C 994.878906 426.578125 1001.25 415.574219 1025.554688 413.101562 Z M 1025.554688 413.101562 " fill-opacity="1" fill-rule="evenodd"/></g><g clip-path="url(#5bbbe7ef43)"><path fill="#31a8ec" d="M 0.0195312 542.863281 C 0.0195312 542.863281 125.4375 606.371094 197.472656 602.28125 C 269.507812 598.1875 277.105469 586.53125 303.671875 579.714844 C 337.328125 571.078125 501.511719 582.953125 512.785156 581.847656 C 529.65625 580.195312 540.828125 593.355469 642.882812 576.003906 C 713.859375 563.933594 762.613281 550.269531 800.164062 550.359375 C 866.074219 550.519531 1025.554688 590.972656 1025.554688 590.972656 L 1025.554688 615.183594 L 0.0195312 615.191406 Z M 316.964844 573.089844 C 388.320312 544.464844 447.390625 556.8125 538.535156 569.765625 C 458.65625 586.660156 389.921875 565.617188 316.964844 573.089844 Z M 316.964844 573.089844 " fill-opacity="1" fill-rule="evenodd"/></g><g clip-path="url(#6015f25069)"><path fill="#b8e2f7" d="M 176.066406 444.757812 C 176.066406 444.757812 236.304688 460.300781 277.390625 449.105469 C 312.296875 439.597656 359.335938 420.941406 412.417969 430.273438 C 315.085938 457.347656 233.113281 466.917969 176.066406 444.757812 Z M 245.234375 460.191406 C 288.226562 460.253906 330.542969 453.613281 372.839844 446.757812 C 315.683594 487.296875 272.179688 461.878906 245.234375 460.191406 Z M 562.511719 430.277344 C 752.460938 381.539062 874.242188 412.054688 1005.875 446.757812 C 901.734375 471.554688 841.382812 453.738281 772.652344 430.277344 C 707.421875 408.007812 562.511719 430.277344 562.511719 430.277344 Z M 558.996094 434.078125 C 629.796875 424.503906 722.949219 414.039062 843.445312 458.179688 C 899.492188 478.710938 1025.554688 446.757812 1025.554688 446.757812 L 1025.554688 452.152344 C 959.25 485.871094 882.242188 485.96875 797.304688 469.601562 C 729.417969 456.519531 707.125 442.65625 673.761719 438.570312 C 637.519531 434.128906 590.136719 437.355469 558.996094 434.078125 Z M 558.996094 434.078125 " fill-opacity="1" fill-rule="evenodd"/></g><g clip-path="url(#95360e48ff)"><path fill="#8acff8" d="M 1025.554688 552.855469 C 1025.554688 552.855469 955.28125 552.601562 920.386719 540.890625 C 885.390625 529.144531 697.125 479.140625 587.886719 489.128906 C 464.382812 500.417969 432.292969 520.949219 421.804688 523.769531 C 411.3125 526.589844 361.226562 537.667969 326.1875 534.421875 C 263.511719 528.609375 214.972656 502.804688 184.976562 497.421875 C 122.535156 486.21875 53.886719 518.390625 0.0195312 496.566406 L 0.0195312 442.585938 C 0.0195312 442.585938 22.859375 435.652344 51.863281 445.839844 C 73.441406 453.414062 197.066406 509.246094 258.292969 503.339844 C 319.519531 497.429688 311.671875 505.523438 338.371094 499.898438 C 365.070312 494.273438 405.445312 472.058594 405.445312 472.058594 L 639.355469 458.601562 C 639.355469 458.601562 761.535156 483.167969 795.230469 495.625 C 828.921875 508.082031 856.289062 516.828125 883.722656 517.296875 C 911.160156 517.765625 946.464844 530.65625 979.308594 529.296875 C 1011.195312 527.980469 1025.554688 523.257812 1025.554688 523.257812 Z M 931.242188 521.152344 C 968.777344 519.761719 998.8125 509.265625 1025.554688 494.765625 L 1025.554688 517.777344 C 995.71875 525.125 964.128906 525.644531 931.242188 521.152344 Z M 417.726562 467.984375 C 484.515625 443.855469 548.9375 442.503906 612.089844 453.410156 C 547.773438 455.941406 483.070312 460.394531 417.726562 467.984375 Z M 48.835938 440.28125 C 113.988281 436.300781 154.242188 477.59375 252.269531 499.132812 C 221.351562 494.859375 166.636719 484.222656 127.882812 471.785156 C 87.910156 458.960938 64.140625 444.332031 48.835938 440.28125 Z M 48.835938 440.28125 " fill-opacity="1" fill-rule="evenodd"/></g><g clip-path="url(#5cd241a570)"><path fill="#5cbbf1" d="M 44.234375 518.546875 C 109.050781 507.59375 157.925781 482.476562 225.347656 520.054688 C 165.757812 503.53125 108.695312 526.25 44.234375 518.546875 Z M 0.0195312 515.929688 L 29.902344 520.195312 C 29.902344 520.195312 63.367188 527.773438 81.777344 524.027344 C 100.1875 520.28125 201.628906 531.703125 225.347656 539.828125 C 249.0625 547.953125 308.214844 550.140625 342.039062 544.925781 C 372.085938 540.292969 470.839844 520.195312 470.839844 520.195312 C 470.839844 520.195312 507.558594 524.207031 533.707031 515.207031 C 559.855469 506.203125 585.550781 494.261719 607.5625 494.765625 C 629.574219 495.273438 746.480469 501.542969 767.523438 509.398438 C 798.085938 520.800781 899.246094 558.671875 896.222656 557.984375 C 896.222656 557.984375 736.859375 512.914062 650.039062 548.871094 C 556.867188 587.457031 454.925781 534.121094 384.101562 544.863281 C 313.28125 555.605469 259.09375 599.460938 168.542969 589.515625 C 77.996094 579.570312 0.0195312 536.652344 0.0195312 536.652344 Z M 117.730469 521.195312 C 172.144531 516.976562 226.367188 520.71875 280.253906 538.328125 C 238.222656 540.582031 180.199219 520.203125 117.730469 521.195312 Z M 476.035156 516.941406 C 507.679688 508.851562 539.957031 503.148438 572.683594 499.132812 C 549.675781 505.367188 517.851562 519.472656 476.035156 516.941406 Z M 1025.554688 561.433594 L 1025.554688 581.535156 C 963.644531 570.464844 905.453125 554.726562 851.167969 534.066406 C 909.28125 548.378906 967.402344 559.273438 1025.554688 561.433594 Z M 1025.554688 561.433594 " fill-opacity="1" fill-rule="evenodd"/></g><g transform="matrix(1, 0, 0, 1, 125, 179)"><g clip-path="url(#891c196740)"><g fill="#134378" fill-opacity="1"><g transform="translate(13.860274, 244.264484)"><g><path d="M 55.5625 17 C 41.75 13.289062 31.734375 6.289062 25.515625 -4 C 19.304688 -14.289062 17.988281 -26.101562 21.5625 -39.4375 L 44.734375 -125.75 C 48.304688 -139.082031 55.351562 -148.644531 65.875 -154.4375 C 76.40625 -160.238281 88.578125 -161.285156 102.390625 -157.578125 C 116.203125 -153.867188 126.296875 -146.847656 132.671875 -136.515625 C 139.054688 -126.179688 140.4375 -114.269531 136.8125 -100.78125 L 134.265625 -91.25 C 134.046875 -90.445312 133.578125 -89.835938 132.859375 -89.421875 C 132.140625 -89.015625 131.375 -88.921875 130.5625 -89.140625 L 108.140625 -95.15625 C 107.316406 -95.375 106.695312 -95.84375 106.28125 -96.5625 C 105.863281 -97.28125 105.765625 -98.039062 105.984375 -98.84375 L 108.671875 -108.859375 C 110.242188 -114.710938 109.84375 -119.867188 107.46875 -124.328125 C 105.09375 -128.796875 101.222656 -131.75 95.859375 -133.1875 C 90.492188 -134.625 85.707031 -133.992188 81.5 -131.296875 C 77.289062 -128.609375 74.398438 -124.335938 72.828125 -118.484375 L 49.53125 -31.671875 C 47.957031 -25.816406 48.316406 -20.660156 50.609375 -16.203125 C 52.898438 -11.753906 56.726562 -8.8125 62.09375 -7.375 C 67.457031 -5.9375 72.285156 -6.554688 76.578125 -9.234375 C 80.867188 -11.921875 83.800781 -16.191406 85.375 -22.046875 L 91.65625 -45.453125 C 91.875 -46.265625 91.578125 -46.78125 90.765625 -47 L 75.890625 -51 C 75.078125 -51.207031 74.457031 -51.671875 74.03125 -52.390625 C 73.613281 -53.117188 73.515625 -53.894531 73.734375 -54.71875 L 78.515625 -72.5 C 78.734375 -73.320312 79.203125 -73.9375 79.921875 -74.34375 C 80.648438 -74.757812 81.421875 -74.863281 82.234375 -74.65625 L 123.6875 -63.53125 C 124.5 -63.3125 125.113281 -62.835938 125.53125 -62.109375 C 125.945312 -61.390625 126.046875 -60.617188 125.828125 -59.796875 L 113.71875 -14.703125 C 110.144531 -1.367188 103.007812 8.171875 92.3125 13.921875 C 81.625 19.679688 69.375 20.707031 55.5625 17 Z M 55.5625 17 "/></g></g></g></g></g><g transform="matrix(1, 0, 0, 1, 389, 171)"><g clip-path="url(#efbb1c57f9)"><g fill="#134378" fill-opacity="1"><g transform="translate(15.418014, 242.035901)"><g><path d="M 112.046875 -151.140625 C 120.585938 -148.566406 127.492188 -144.203125 132.765625 -138.046875 C 138.046875 -131.898438 141.359375 -124.492188 142.703125 -115.828125 C 144.054688 -107.160156 143.285156 -97.992188 140.390625 -88.328125 C 136.035156 -73.828125 128.695312 -63.289062 118.375 -56.71875 C 108.050781 -50.144531 96.601562 -48.75 84.03125 -52.53125 L 63.46875 -58.703125 C 62.675781 -58.941406 62.160156 -58.660156 61.921875 -57.859375 L 41.75 9.359375 C 41.5 10.171875 41.003906 10.769531 40.265625 11.15625 C 39.523438 11.550781 38.757812 11.628906 37.96875 11.390625 L 15.71875 4.71875 C 14.90625 4.476562 14.300781 3.988281 13.90625 3.25 C 13.507812 2.519531 13.4375 1.75 13.6875 0.9375 L 62.828125 -162.75 C 63.066406 -163.550781 63.550781 -164.148438 64.28125 -164.546875 C 65.007812 -164.941406 65.78125 -165.019531 66.59375 -164.78125 Z M 84.59375 -76.359375 C 90.5625 -74.566406 96.046875 -75.421875 101.046875 -78.921875 C 106.054688 -82.429688 109.75 -88.128906 112.125 -96.015625 C 114.539062 -104.078125 114.648438 -111.03125 112.453125 -116.875 C 110.253906 -122.71875 106.171875 -126.535156 100.203125 -128.328125 L 85.6875 -132.6875 C 84.894531 -132.925781 84.378906 -132.644531 84.140625 -131.84375 L 69.25 -82.265625 C 69.007812 -81.472656 69.285156 -80.957031 70.078125 -80.71875 Z M 84.59375 -76.359375 "/></g></g></g></g></g><g clip-path="url(#8c986fcac9)"><path fill="#b8e2f7" d="M 1025.699219 307.914062 L 1025.699219 617.574219 L -4.332031 617.574219 L -4.332031 300.597656 C -4.332031 300.597656 33.707031 301.601562 51.101562 313.3125 C 68.496094 325.023438 97.140625 311.480469 133.746094 313.3125 C 170.351562 315.144531 192.742188 332.789062 225.488281 327.820312 C 258.230469 322.855469 307.820312 313.105469 348.589844 315.242188 C 393.6875 317.609375 444.691406 305.761719 493.523438 307.652344 C 544.699219 309.636719 586.691406 334.863281 650.5625 322.066406 C 695.285156 313.109375 798.738281 345.945312 845.671875 335.921875 C 892.601562 325.902344 900.863281 314.792969 954.125 316.230469 C 1007.386719 317.671875 1025.699219 307.914062 1025.699219 307.914062 Z M 1025.699219 307.914062 " fill-opacity="1" fill-rule="evenodd"/></g><g clip-path="url(#78121de3e8)"><path fill="#8acff8" d="M -4.332031 363.488281 C -4.332031 363.488281 7.007812 360.429688 19.351562 360.097656 C 42.75 359.46875 204.421875 378.355469 210.546875 381.410156 C 226.9375 389.582031 274.464844 386.507812 299.730469 381.410156 C 324.996094 376.3125 531.792969 341.773438 547.472656 344.917969 C 563.152344 348.066406 662.382812 376.703125 713.613281 378.90625 C 779.496094 381.742188 838.414062 360.707031 895.453125 356.707031 C 937.460938 353.761719 993.980469 369.804688 1025.699219 356.707031 L 1025.699219 450.644531 L -4.332031 443.605469 Z M 31.171875 356.707031 C 81.820312 347.007812 129.921875 353.839844 176.617188 372.867188 C 128.582031 364.953125 80.152344 359.273438 31.171875 356.707031 Z M 556.746094 340.878906 C 633.296875 340.132812 675.5625 356.3125 719.246094 372.867188 C 650.535156 374.296875 595.734375 345.078125 556.746094 340.878906 Z M 1025.699219 340.855469 L 1025.699219 350.53125 C 974.292969 364.535156 936.058594 341.292969 887.519531 352.324219 C 942.878906 325.371094 992.015625 339.800781 1025.699219 340.855469 Z M 1025.699219 340.855469 " fill-opacity="1" fill-rule="evenodd"/></g><g clip-path="url(#d921bcd4cf)"><path fill="#5cbbf1" d="M 117.699219 411.40625 C 184.128906 418.09375 312.519531 388.667969 355.878906 385.613281 C 415.800781 381.390625 471.261719 390.507812 516.695312 375.953125 C 584.429688 354.25 660.429688 399.875 719.402344 399.328125 C 778.375 398.78125 846.910156 374.328125 878.964844 371.542969 C 912.929688 368.59375 968.257812 387.921875 992.09375 384.285156 C 1016.222656 380.605469 1025.699219 375.070312 1025.699219 375.070312 L 1025.699219 462.503906 L 109.214844 462.503906 Z M 395.785156 377.609375 C 439.074219 371.628906 483.375 367.347656 529.878906 366.792969 C 512.847656 368.246094 496.804688 376.699219 472.28125 378.289062 C 449.648438 379.757812 421.417969 375.816406 395.785156 377.609375 Z M 395.785156 377.609375 " fill-opacity="1" fill-rule="evenodd"/></g><g clip-path="url(#ca60bac741)"><path fill="#0294ea" d="M 149.703125 423.816406 L 228.5625 462.503906 L 547.472656 421.648438 C 405.503906 370.070312 278.082031 424.070312 149.703125 423.816406 Z M 149.703125 423.816406 " fill-opacity="1" fill-rule="evenodd"/></g><g clip-path="url(#f76c1324be)"><path fill="#b7e3f9" d="M 1025.699219 414.535156 L 1025.699219 617.574219 L -4.332031 617.574219 L -4.332031 400.007812 C -4.332031 400.007812 33.191406 406.851562 73.046875 402.289062 C 138.273438 394.820312 162.191406 434.925781 209.035156 438.921875 C 281.304688 445.089844 326.6875 407.363281 420.394531 420.980469 C 499.078125 432.417969 551.882812 394.792969 623.679688 390.21875 C 717.414062 384.246094 765.496094 410.523438 837.652344 401.289062 C 903.824219 392.816406 929.523438 427.160156 965.695312 427.664062 C 994.890625 428.074219 1001.289062 417.019531 1025.699219 414.535156 Z M 1025.699219 414.535156 " fill-opacity="1" fill-rule="evenodd"/></g><g clip-path="url(#6ff70c1399)"><path fill="#e4f7fe" d="M 1025.699219 414.535156 L 1025.699219 461.179688 C 929.261719 528.953125 720.378906 461.296875 689.523438 449.828125 C 659.5 438.667969 627.164062 442.902344 600.640625 442.433594 C 572.363281 441.933594 550.566406 437.050781 540.796875 434.699219 C 540.796875 434.699219 485.632812 445.292969 435.78125 431.789062 C 379.082031 439.019531 351.027344 472.128906 317.085938 475.398438 C 282.628906 478.714844 260.671875 471.917969 228.5625 462.503906 C 202.71875 463.023438 175.308594 453.324219 148.261719 442.964844 C 77.457031 439.765625 31.261719 410.945312 -4.332031 408.117188 L -4.332031 400.007812 C -4.332031 400.007812 33.191406 406.851562 73.046875 402.289062 C 138.273438 394.820312 162.191406 434.925781 209.035156 438.921875 C 281.304688 445.089844 326.6875 407.363281 420.394531 420.980469 C 499.078125 432.417969 551.882812 394.792969 623.679688 390.21875 C 717.414062 384.246094 765.496094 410.523438 837.652344 401.289062 C 903.824219 392.816406 929.523438 427.160156 965.695312 427.664062 C 994.890625 428.074219 1001.289062 417.019531 1025.699219 414.535156 Z M 1025.699219 414.535156 " fill-opacity="1" fill-rule="evenodd"/></g><g clip-path="url(#217eab01a6)"><path fill="#31a8ec" d="M -4.332031 544.910156 C -4.332031 544.910156 121.636719 608.722656 193.984375 604.613281 C 266.335938 600.5 273.96875 588.789062 300.652344 581.9375 C 334.457031 573.257812 499.359375 585.191406 510.683594 584.082031 C 527.628906 582.421875 538.847656 595.644531 641.351562 578.207031 C 712.636719 566.082031 761.605469 552.355469 799.320312 552.445312 C 865.523438 552.605469 1025.699219 593.25 1025.699219 593.25 L 1025.699219 617.574219 L -4.332031 617.582031 Z M 314.003906 575.28125 C 385.671875 546.519531 445 558.929688 536.542969 571.941406 C 456.316406 588.914062 387.28125 567.773438 314.003906 575.28125 Z M 314.003906 575.28125 " fill-opacity="1" fill-rule="evenodd"/></g><g clip-path="url(#c5b62b31db)"><path fill="#b8e2f7" d="M 172.484375 446.339844 C 172.484375 446.339844 232.988281 461.957031 274.253906 450.710938 C 309.3125 441.15625 356.5625 422.410156 409.871094 431.785156 C 312.117188 458.992188 229.78125 468.605469 172.484375 446.339844 Z M 241.960938 461.847656 C 285.136719 461.910156 327.640625 455.238281 370.121094 448.351562 C 312.714844 489.082031 269.023438 463.546875 241.960938 461.847656 Z M 560.625 431.789062 C 751.40625 382.820312 873.722656 413.484375 1005.933594 448.351562 C 901.335938 473.265625 840.722656 455.363281 771.6875 431.789062 C 706.171875 409.414062 560.625 431.789062 560.625 431.789062 Z M 557.097656 435.609375 C 628.207031 425.992188 721.765625 415.476562 842.792969 459.828125 C 899.082031 480.457031 1025.699219 448.351562 1025.699219 448.351562 L 1025.699219 453.773438 C 959.105469 487.652344 881.761719 487.75 796.449219 471.304688 C 728.265625 458.160156 705.875 444.230469 672.363281 440.125 C 635.960938 435.660156 588.375 438.902344 557.097656 435.609375 Z M 557.097656 435.609375 " fill-opacity="1" fill-rule="evenodd"/></g><g clip-path="url(#ec1a5ad58a)"><path fill="#8acff8" d="M 1025.699219 554.953125 C 1025.699219 554.953125 955.121094 554.699219 920.070312 542.929688 C 884.921875 531.128906 695.832031 480.886719 586.113281 490.921875 C 462.066406 502.265625 429.835938 522.894531 419.300781 525.730469 C 408.765625 528.5625 358.457031 539.691406 323.265625 536.429688 C 260.3125 530.59375 211.566406 504.664062 181.433594 499.253906 C 118.722656 488 49.769531 520.320312 -4.332031 498.394531 L -4.332031 444.15625 C -4.332031 444.15625 18.609375 437.191406 47.738281 447.425781 C 69.410156 455.039062 193.578125 511.136719 255.074219 505.203125 C 316.570312 499.265625 308.683594 507.394531 335.503906 501.742188 C 362.320312 496.089844 402.871094 473.773438 402.871094 473.773438 L 637.808594 460.25 C 637.808594 460.25 760.523438 484.933594 794.363281 497.449219 C 828.203125 509.964844 855.691406 518.753906 883.246094 519.222656 C 910.804688 519.695312 946.261719 532.648438 979.253906 531.285156 C 1011.277344 529.957031 1025.699219 525.210938 1025.699219 525.210938 Z M 930.976562 523.101562 C 968.671875 521.703125 998.839844 511.15625 1025.699219 496.589844 L 1025.699219 519.707031 C 995.734375 527.089844 964.003906 527.613281 930.976562 523.101562 Z M 415.207031 469.675781 C 482.285156 445.4375 546.992188 444.078125 610.421875 455.035156 C 545.824219 457.578125 480.835938 462.050781 415.207031 469.675781 Z M 44.699219 441.84375 C 110.136719 437.84375 150.566406 479.335938 249.023438 500.972656 C 217.972656 496.679688 163.015625 485.992188 124.089844 473.496094 C 83.941406 460.609375 60.066406 445.914062 44.699219 441.84375 Z M 44.699219 441.84375 " fill-opacity="1" fill-rule="evenodd"/></g><g clip-path="url(#6dc62f1730)"><path fill="#5cbbf1" d="M 40.078125 520.480469 C 105.179688 509.476562 154.265625 484.238281 221.984375 521.992188 C 162.132812 505.394531 104.820312 528.21875 40.078125 520.480469 Z M -4.332031 517.851562 L 25.683594 522.136719 C 25.683594 522.136719 59.292969 529.75 77.785156 525.984375 C 96.273438 522.222656 198.164062 533.699219 221.984375 541.863281 C 245.804688 550.023438 305.214844 552.222656 339.1875 546.984375 C 369.367188 542.328125 468.554688 522.136719 468.554688 522.136719 C 468.554688 522.136719 505.433594 526.167969 531.695312 517.125 C 557.960938 508.078125 583.769531 496.078125 605.875 496.589844 C 627.980469 497.097656 745.402344 503.394531 766.539062 511.285156 C 797.234375 522.742188 898.835938 560.792969 895.800781 560.105469 C 895.800781 560.105469 735.738281 514.820312 648.539062 550.949219 C 554.960938 589.71875 452.566406 536.128906 381.433594 546.921875 C 310.300781 557.714844 255.878906 601.777344 164.929688 591.785156 C 73.984375 581.792969 -4.332031 538.671875 -4.332031 538.671875 Z M 113.894531 523.140625 C 168.546875 518.902344 223.007812 522.660156 277.132812 540.355469 C 234.914062 542.621094 176.636719 522.144531 113.894531 523.140625 Z M 473.773438 518.867188 C 505.554688 510.738281 537.972656 505.007812 570.84375 500.972656 C 547.734375 507.238281 515.769531 521.410156 473.773438 518.867188 Z M 1025.699219 563.570312 L 1025.699219 583.765625 C 963.519531 572.644531 905.070312 556.832031 850.550781 536.074219 C 908.917969 550.453125 967.292969 561.398438 1025.699219 563.570312 Z M 1025.699219 563.570312 " fill-opacity="1" fill-rule="evenodd"/></g><g clip-path="url(#61f801dac3)"><g transform="matrix(1, 0, 0, 1, 564, -0.000000000000058398)"><g clip-path="url(#8bcd466c29)"><g clip-path="url(#6a5a404e1a)"><path fill="#f4f6fc" d="M 0.21875 -10.226562 L 499.21875 -10.226562 L 499.21875 576.488281 L 0.21875 576.488281 Z M 0.21875 -10.226562 " fill-opacity="1" fill-rule="nonzero"/></g></g></g></g><g transform="matrix(1, 0, 0, 1, 269, 192)"><g clip-path="url(#d81fe2d569)"><g fill="#134378" fill-opacity="1"><g transform="translate(29.049307, 264.15435)"><g><path d="M 84.796875 -9.53125 C 82.785156 -9.300781 81.59375 -10.097656 81.21875 -11.921875 L 73.5 -37.71875 C 73.40625 -38.5625 72.859375 -38.925781 71.859375 -38.8125 L 35.21875 -34.703125 C 34.21875 -34.585938 33.765625 -34.109375 33.859375 -33.265625 L 32.046875 -6.40625 C 32.085938 -4.539062 31.101562 -3.492188 29.09375 -3.265625 L 6.265625 -0.703125 C 3.929688 -0.441406 2.894531 -1.425781 3.15625 -3.65625 L 21.21875 -177.40625 C 21.34375 -179.289062 22.320312 -180.335938 24.15625 -180.546875 L 50.765625 -183.53125 C 52.597656 -183.738281 53.785156 -182.9375 54.328125 -181.125 L 110.515625 -15.71875 L 110.625 -14.703125 C 110.789062 -13.203125 109.957031 -12.351562 108.125 -12.15625 Z M 35.53125 -59.109375 C 35.457031 -58.265625 35.925781 -57.898438 36.9375 -58.015625 L 64.765625 -61.140625 C 65.773438 -61.253906 66.148438 -61.71875 65.890625 -62.53125 L 42.421875 -140.171875 C 42.203125 -140.648438 41.921875 -140.867188 41.578125 -140.828125 C 41.242188 -140.796875 41.019531 -140.519531 40.90625 -140 Z M 35.53125 -59.109375 "/></g></g></g></g></g><g transform="matrix(1, 0, 0, 1, 0, 198)"><g clip-path="url(#1dd004a43d)"><g fill="#134378" fill-opacity="1"><g transform="translate(50.395904, 273.840313)"><g><path d="M 82.5625 -21.578125 C 80.601562 -21.066406 79.304688 -21.6875 78.671875 -23.4375 L 67.328125 -47.859375 C 67.117188 -48.671875 66.523438 -48.953125 65.546875 -48.703125 L 29.890625 -39.375 C 28.910156 -39.125 28.523438 -38.59375 28.734375 -37.78125 L 30.796875 -10.921875 C 31.109375 -9.085938 30.285156 -7.914062 28.328125 -7.40625 L 6.109375 -1.59375 C 3.828125 -1 2.65625 -1.820312 2.59375 -4.0625 L -4.421875 -178.625 C -4.554688 -180.5 -3.734375 -181.671875 -1.953125 -182.140625 L 23.9375 -188.90625 C 25.738281 -189.375 27.035156 -188.753906 27.828125 -187.046875 L 107.125 -31.390625 L 107.375 -30.40625 C 107.757812 -28.945312 107.0625 -27.984375 105.28125 -27.515625 Z M 26.6875 -63.59375 C 26.738281 -62.738281 27.253906 -62.441406 28.234375 -62.703125 L 55.34375 -69.78125 C 56.320312 -70.039062 56.617188 -70.550781 56.234375 -71.3125 L 21.90625 -144.8125 C 21.613281 -145.257812 21.300781 -145.4375 20.96875 -145.34375 C 20.644531 -145.257812 20.46875 -144.953125 20.4375 -144.421875 Z M 26.6875 -63.59375 "/></g></g></g></g></g></svg>